<svg width="24" height="24" viewBox="0 0 24 24" fill="none" xmlns="http://www.w3.org/2000/svg">
<path d="M6 13.285C6 11.635 6.67 10.135 7.76 9.04497L6.34 7.62497C4.9 9.07497 4 11.075 4 13.285C4 17.365 7.05 20.725 11 21.215V19.195C8.17 18.715 6 16.255 6 13.285ZM20 13.285C20 8.86497 16.42 5.28497 12 5.28497C11.94 5.28497 11.88 5.29497 11.82 5.29497L12.91 4.20497L11.5 2.78497L8 6.28497L11.5 9.78497L12.91 8.37497L11.83 7.29497C11.89 7.29497 11.95 7.28497 12 7.28497C15.31 7.28497 18 9.97497 18 13.285C18 16.255 15.83 18.715 13 19.195V21.215C16.95 20.725 20 17.365 20 13.285Z" fill="black"/>
</svg>
