<svg width="24" height="24" viewBox="0 0 24 24" fill="none" xmlns="http://www.w3.org/2000/svg">
<path d="M15.585 7.08503L11.035 2.53503V5.60503C7.09503 6.09503 4.03503 9.45503 4.03503 13.535C4.03503 17.615 7.08503 20.975 11.035 21.465V19.445C8.19503 18.965 6.03503 16.505 6.03503 13.535C6.03503 10.565 8.19503 8.10503 11.035 7.62503V11.535L15.585 7.08503ZM19.965 12.535C19.795 11.145 19.245 9.80503 18.345 8.64503L16.925 10.065C17.465 10.815 17.805 11.665 17.945 12.535H19.965ZM13.035 19.435V21.455C14.425 21.285 15.775 20.745 16.935 19.845L15.495 18.405C14.745 18.945 13.905 19.295 13.035 19.435ZM16.925 17.015L18.345 18.425C19.245 17.265 19.795 15.925 19.965 14.535H17.945C17.805 15.405 17.465 16.255 16.925 17.015Z" fill="white"/>
</svg>
